<mxfile host="Electron" modified="2024-01-07T22:24:31.054Z" agent="Mozilla/5.0 (Macintosh; Intel Mac OS X 10_15_7) AppleWebKit/537.36 (KHTML, like Gecko) draw.io/21.8.2 Chrome/114.0.5735.289 Electron/25.8.1 Safari/537.36" etag="3WCejCNArvVsHhW-LKc9" version="21.8.2" type="device">
  <diagram name="第 1 页" id="0ZsTgkNQJbbfYuA7SXsV">
    <mxGraphModel dx="184" dy="-1653" grid="0" gridSize="10" guides="1" tooltips="1" connect="1" arrows="1" fold="1" page="0" pageScale="1" pageWidth="827" pageHeight="1169" math="0" shadow="0">
      <root>
        <mxCell id="0" />
        <mxCell id="1" parent="0" />
        <mxCell id="OM0yy5erdSnodjNcbPo9-1" value="3" style="rounded=0;orthogonalLoop=1;jettySize=auto;html=1;exitX=0.5;exitY=1;exitDx=0;exitDy=0;shape=link;fillColor=#d5e8d4;strokeColor=#82b366;" edge="1" parent="1" source="OM0yy5erdSnodjNcbPo9-4" target="OM0yy5erdSnodjNcbPo9-6">
          <mxGeometry x="0.011" relative="1" as="geometry">
            <mxPoint as="offset" />
          </mxGeometry>
        </mxCell>
        <mxCell id="OM0yy5erdSnodjNcbPo9-2" value="4" style="rounded=0;orthogonalLoop=1;jettySize=auto;html=1;exitX=0.5;exitY=1;exitDx=0;exitDy=0;shape=link;fillColor=#d5e8d4;strokeColor=#82b366;" edge="1" parent="1" source="OM0yy5erdSnodjNcbPo9-4" target="OM0yy5erdSnodjNcbPo9-8">
          <mxGeometry x="-0.0056" relative="1" as="geometry">
            <mxPoint as="offset" />
          </mxGeometry>
        </mxCell>
        <mxCell id="OM0yy5erdSnodjNcbPo9-3" value="4" style="rounded=0;orthogonalLoop=1;jettySize=auto;html=1;exitX=1;exitY=0.5;exitDx=0;exitDy=0;shape=link;fillColor=#d5e8d4;strokeColor=#82b366;" edge="1" parent="1" source="OM0yy5erdSnodjNcbPo9-4" target="OM0yy5erdSnodjNcbPo9-11">
          <mxGeometry relative="1" as="geometry">
            <mxPoint as="offset" />
          </mxGeometry>
        </mxCell>
        <mxCell id="OM0yy5erdSnodjNcbPo9-4" value="4{2}[0]" style="ellipse;whiteSpace=wrap;html=1;aspect=fixed;" vertex="1" parent="1">
          <mxGeometry x="1000" y="2520" width="40" height="40" as="geometry" />
        </mxCell>
        <mxCell id="OM0yy5erdSnodjNcbPo9-5" value="1" style="rounded=0;orthogonalLoop=1;jettySize=auto;html=1;exitX=1;exitY=0.5;exitDx=0;exitDy=0;entryX=0;entryY=0.5;entryDx=0;entryDy=0;shape=link;fillColor=#d5e8d4;strokeColor=#82b366;" edge="1" parent="1" source="OM0yy5erdSnodjNcbPo9-6" target="OM0yy5erdSnodjNcbPo9-9">
          <mxGeometry relative="1" as="geometry">
            <mxPoint as="offset" />
          </mxGeometry>
        </mxCell>
        <mxCell id="OM0yy5erdSnodjNcbPo9-6" value="8{6}[0]" style="ellipse;whiteSpace=wrap;html=1;aspect=fixed;" vertex="1" parent="1">
          <mxGeometry x="1040" y="2600" width="40" height="40" as="geometry" />
        </mxCell>
        <mxCell id="OM0yy5erdSnodjNcbPo9-7" value="6" style="rounded=0;orthogonalLoop=1;jettySize=auto;html=1;exitX=0;exitY=0.5;exitDx=0;exitDy=0;shape=link;fillColor=#d5e8d4;strokeColor=#82b366;" edge="1" parent="1" source="OM0yy5erdSnodjNcbPo9-8" target="OM0yy5erdSnodjNcbPo9-13">
          <mxGeometry relative="1" as="geometry">
            <mxPoint as="offset" />
          </mxGeometry>
        </mxCell>
        <mxCell id="OM0yy5erdSnodjNcbPo9-8" value="3{6}[0]" style="ellipse;whiteSpace=wrap;html=1;aspect=fixed;" vertex="1" parent="1">
          <mxGeometry x="960" y="2600" width="40" height="40" as="geometry" />
        </mxCell>
        <mxCell id="OM0yy5erdSnodjNcbPo9-9" value="6{6}[2]" style="ellipse;whiteSpace=wrap;html=1;aspect=fixed;" vertex="1" parent="1">
          <mxGeometry x="1120" y="2600" width="40" height="40" as="geometry" />
        </mxCell>
        <mxCell id="OM0yy5erdSnodjNcbPo9-10" value="5" style="rounded=0;orthogonalLoop=1;jettySize=auto;html=1;exitX=1;exitY=1;exitDx=0;exitDy=0;shape=link;entryX=0.5;entryY=0;entryDx=0;entryDy=0;" edge="1" parent="1" source="OM0yy5erdSnodjNcbPo9-11" target="OM0yy5erdSnodjNcbPo9-9">
          <mxGeometry x="0.0007" relative="1" as="geometry">
            <mxPoint as="offset" />
          </mxGeometry>
        </mxCell>
        <mxCell id="OM0yy5erdSnodjNcbPo9-11" value="5{6}[0]" style="ellipse;whiteSpace=wrap;html=1;aspect=fixed;" vertex="1" parent="1">
          <mxGeometry x="1080" y="2520" width="40" height="40" as="geometry" />
        </mxCell>
        <mxCell id="OM0yy5erdSnodjNcbPo9-12" value="1" style="rounded=0;orthogonalLoop=1;jettySize=auto;html=1;exitX=0.5;exitY=1;exitDx=0;exitDy=0;shape=link;fillColor=#d5e8d4;strokeColor=#82b366;" edge="1" parent="1" source="OM0yy5erdSnodjNcbPo9-13" target="OM0yy5erdSnodjNcbPo9-16">
          <mxGeometry relative="1" as="geometry">
            <mxPoint as="offset" />
          </mxGeometry>
        </mxCell>
        <mxCell id="OM0yy5erdSnodjNcbPo9-13" value="7{1}[0]" style="ellipse;whiteSpace=wrap;html=1;aspect=fixed;" vertex="1" parent="1">
          <mxGeometry x="880" y="2600" width="40" height="40" as="geometry" />
        </mxCell>
        <mxCell id="OM0yy5erdSnodjNcbPo9-14" value="3" style="rounded=0;orthogonalLoop=1;jettySize=auto;html=1;exitX=1;exitY=0.5;exitDx=0;exitDy=0;shape=link;fillColor=#d5e8d4;strokeColor=#82b366;" edge="1" parent="1" source="OM0yy5erdSnodjNcbPo9-15" target="OM0yy5erdSnodjNcbPo9-4">
          <mxGeometry relative="1" as="geometry">
            <mxPoint as="offset" />
          </mxGeometry>
        </mxCell>
        <mxCell id="OM0yy5erdSnodjNcbPo9-15" value="2{6}[1]" style="ellipse;whiteSpace=wrap;html=1;aspect=fixed;" vertex="1" parent="1">
          <mxGeometry x="920" y="2520" width="40" height="40" as="geometry" />
        </mxCell>
        <mxCell id="OM0yy5erdSnodjNcbPo9-16" value="1{6}[1]" style="ellipse;whiteSpace=wrap;html=1;aspect=fixed;" vertex="1" parent="1">
          <mxGeometry x="880" y="2680" width="40" height="40" as="geometry" />
        </mxCell>
        <mxCell id="OM0yy5erdSnodjNcbPo9-17" value="3" style="rounded=0;orthogonalLoop=1;jettySize=auto;html=1;exitX=0.5;exitY=1;exitDx=0;exitDy=0;shape=link;fillColor=#d5e8d4;strokeColor=#000000;" edge="1" parent="1" source="OM0yy5erdSnodjNcbPo9-20" target="OM0yy5erdSnodjNcbPo9-22">
          <mxGeometry x="0.011" relative="1" as="geometry">
            <mxPoint as="offset" />
          </mxGeometry>
        </mxCell>
        <mxCell id="OM0yy5erdSnodjNcbPo9-18" value="4" style="rounded=0;orthogonalLoop=1;jettySize=auto;html=1;exitX=0.5;exitY=1;exitDx=0;exitDy=0;shape=link;fillColor=#d5e8d4;strokeColor=#000000;" edge="1" parent="1" source="OM0yy5erdSnodjNcbPo9-20" target="OM0yy5erdSnodjNcbPo9-24">
          <mxGeometry x="-0.0056" relative="1" as="geometry">
            <mxPoint as="offset" />
          </mxGeometry>
        </mxCell>
        <mxCell id="OM0yy5erdSnodjNcbPo9-19" value="4" style="rounded=0;orthogonalLoop=1;jettySize=auto;html=1;exitX=1;exitY=0.5;exitDx=0;exitDy=0;shape=link;fillColor=#d5e8d4;strokeColor=#000000;" edge="1" parent="1" source="OM0yy5erdSnodjNcbPo9-20" target="OM0yy5erdSnodjNcbPo9-27">
          <mxGeometry relative="1" as="geometry">
            <mxPoint as="offset" />
          </mxGeometry>
        </mxCell>
        <mxCell id="OM0yy5erdSnodjNcbPo9-20" value="4" style="ellipse;whiteSpace=wrap;html=1;aspect=fixed;" vertex="1" parent="1">
          <mxGeometry x="1000" y="2760" width="40" height="40" as="geometry" />
        </mxCell>
        <mxCell id="OM0yy5erdSnodjNcbPo9-21" value="1" style="rounded=0;orthogonalLoop=1;jettySize=auto;html=1;exitX=1;exitY=0.5;exitDx=0;exitDy=0;entryX=0;entryY=0.5;entryDx=0;entryDy=0;shape=link;fillColor=#d5e8d4;strokeColor=#000000;" edge="1" parent="1" source="OM0yy5erdSnodjNcbPo9-22" target="OM0yy5erdSnodjNcbPo9-25">
          <mxGeometry relative="1" as="geometry">
            <mxPoint as="offset" />
          </mxGeometry>
        </mxCell>
        <mxCell id="OM0yy5erdSnodjNcbPo9-22" value="8" style="ellipse;whiteSpace=wrap;html=1;aspect=fixed;" vertex="1" parent="1">
          <mxGeometry x="1040" y="2840" width="40" height="40" as="geometry" />
        </mxCell>
        <mxCell id="OM0yy5erdSnodjNcbPo9-23" value="6" style="rounded=0;orthogonalLoop=1;jettySize=auto;html=1;exitX=0;exitY=0.5;exitDx=0;exitDy=0;shape=link;fillColor=#d5e8d4;strokeColor=#000000;" edge="1" parent="1" source="OM0yy5erdSnodjNcbPo9-24" target="OM0yy5erdSnodjNcbPo9-29">
          <mxGeometry relative="1" as="geometry">
            <mxPoint as="offset" />
          </mxGeometry>
        </mxCell>
        <mxCell id="OM0yy5erdSnodjNcbPo9-24" value="3" style="ellipse;whiteSpace=wrap;html=1;aspect=fixed;" vertex="1" parent="1">
          <mxGeometry x="960" y="2840" width="40" height="40" as="geometry" />
        </mxCell>
        <mxCell id="OM0yy5erdSnodjNcbPo9-25" value="6" style="ellipse;whiteSpace=wrap;html=1;aspect=fixed;" vertex="1" parent="1">
          <mxGeometry x="1120" y="2840" width="40" height="40" as="geometry" />
        </mxCell>
        <mxCell id="OM0yy5erdSnodjNcbPo9-26" value="5" style="rounded=0;orthogonalLoop=1;jettySize=auto;html=1;exitX=1;exitY=1;exitDx=0;exitDy=0;shape=link;entryX=0.5;entryY=0;entryDx=0;entryDy=0;" edge="1" parent="1" source="OM0yy5erdSnodjNcbPo9-27" target="OM0yy5erdSnodjNcbPo9-25">
          <mxGeometry x="0.0007" relative="1" as="geometry">
            <mxPoint as="offset" />
          </mxGeometry>
        </mxCell>
        <mxCell id="OM0yy5erdSnodjNcbPo9-27" value="5" style="ellipse;whiteSpace=wrap;html=1;aspect=fixed;" vertex="1" parent="1">
          <mxGeometry x="1080" y="2760" width="40" height="40" as="geometry" />
        </mxCell>
        <mxCell id="OM0yy5erdSnodjNcbPo9-28" value="1" style="rounded=0;orthogonalLoop=1;jettySize=auto;html=1;exitX=0.5;exitY=1;exitDx=0;exitDy=0;shape=link;fillColor=#d5e8d4;strokeColor=#82b366;" edge="1" parent="1" source="OM0yy5erdSnodjNcbPo9-29" target="OM0yy5erdSnodjNcbPo9-32">
          <mxGeometry relative="1" as="geometry">
            <mxPoint as="offset" />
          </mxGeometry>
        </mxCell>
        <mxCell id="OM0yy5erdSnodjNcbPo9-29" value="7" style="ellipse;whiteSpace=wrap;html=1;aspect=fixed;" vertex="1" parent="1">
          <mxGeometry x="880" y="2840" width="40" height="40" as="geometry" />
        </mxCell>
        <mxCell id="OM0yy5erdSnodjNcbPo9-30" value="3" style="rounded=0;orthogonalLoop=1;jettySize=auto;html=1;exitX=1;exitY=0.5;exitDx=0;exitDy=0;shape=link;fillColor=#d5e8d4;strokeColor=#000000;" edge="1" parent="1" source="OM0yy5erdSnodjNcbPo9-31" target="OM0yy5erdSnodjNcbPo9-20">
          <mxGeometry relative="1" as="geometry">
            <mxPoint as="offset" />
          </mxGeometry>
        </mxCell>
        <mxCell id="OM0yy5erdSnodjNcbPo9-136" value="4" style="rounded=0;orthogonalLoop=1;jettySize=auto;html=1;exitX=0.5;exitY=1;exitDx=0;exitDy=0;entryX=0;entryY=0;entryDx=0;entryDy=0;shape=link;" edge="1" parent="1" source="OM0yy5erdSnodjNcbPo9-31" target="OM0yy5erdSnodjNcbPo9-24">
          <mxGeometry relative="1" as="geometry" />
        </mxCell>
        <mxCell id="OM0yy5erdSnodjNcbPo9-31" value="2" style="ellipse;whiteSpace=wrap;html=1;aspect=fixed;" vertex="1" parent="1">
          <mxGeometry x="920" y="2760" width="40" height="40" as="geometry" />
        </mxCell>
        <mxCell id="OM0yy5erdSnodjNcbPo9-32" value="1" style="ellipse;whiteSpace=wrap;html=1;aspect=fixed;" vertex="1" parent="1">
          <mxGeometry x="880" y="2920" width="40" height="40" as="geometry" />
        </mxCell>
        <mxCell id="OM0yy5erdSnodjNcbPo9-36" value="3" style="rounded=0;orthogonalLoop=1;jettySize=auto;html=1;exitX=0.5;exitY=1;exitDx=0;exitDy=0;shape=link;fillColor=#d5e8d4;strokeColor=#000000;" edge="1" parent="1" source="OM0yy5erdSnodjNcbPo9-39" target="OM0yy5erdSnodjNcbPo9-41">
          <mxGeometry x="0.011" relative="1" as="geometry">
            <mxPoint as="offset" />
          </mxGeometry>
        </mxCell>
        <mxCell id="OM0yy5erdSnodjNcbPo9-37" value="4" style="rounded=0;orthogonalLoop=1;jettySize=auto;html=1;exitX=0.5;exitY=1;exitDx=0;exitDy=0;shape=link;fillColor=#d5e8d4;strokeColor=#000000;" edge="1" parent="1" source="OM0yy5erdSnodjNcbPo9-39" target="OM0yy5erdSnodjNcbPo9-43">
          <mxGeometry x="-0.0056" relative="1" as="geometry">
            <mxPoint as="offset" />
          </mxGeometry>
        </mxCell>
        <mxCell id="OM0yy5erdSnodjNcbPo9-38" value="4" style="rounded=0;orthogonalLoop=1;jettySize=auto;html=1;exitX=1;exitY=0.5;exitDx=0;exitDy=0;shape=link;fillColor=#d5e8d4;strokeColor=#000000;" edge="1" parent="1" source="OM0yy5erdSnodjNcbPo9-39" target="OM0yy5erdSnodjNcbPo9-46">
          <mxGeometry relative="1" as="geometry">
            <mxPoint as="offset" />
          </mxGeometry>
        </mxCell>
        <mxCell id="OM0yy5erdSnodjNcbPo9-39" value="4" style="ellipse;whiteSpace=wrap;html=1;aspect=fixed;" vertex="1" parent="1">
          <mxGeometry x="1000" y="3000" width="40" height="40" as="geometry" />
        </mxCell>
        <mxCell id="OM0yy5erdSnodjNcbPo9-40" value="1" style="rounded=0;orthogonalLoop=1;jettySize=auto;html=1;exitX=1;exitY=0.5;exitDx=0;exitDy=0;entryX=0;entryY=0.5;entryDx=0;entryDy=0;shape=link;fillColor=#d5e8d4;strokeColor=#82b366;" edge="1" parent="1" source="OM0yy5erdSnodjNcbPo9-41" target="OM0yy5erdSnodjNcbPo9-44">
          <mxGeometry relative="1" as="geometry">
            <mxPoint as="offset" />
          </mxGeometry>
        </mxCell>
        <mxCell id="OM0yy5erdSnodjNcbPo9-41" value="8" style="ellipse;whiteSpace=wrap;html=1;aspect=fixed;" vertex="1" parent="1">
          <mxGeometry x="1040" y="3080" width="40" height="40" as="geometry" />
        </mxCell>
        <mxCell id="OM0yy5erdSnodjNcbPo9-42" value="6" style="rounded=0;orthogonalLoop=1;jettySize=auto;html=1;exitX=0;exitY=0.5;exitDx=0;exitDy=0;shape=link;fillColor=#d5e8d4;strokeColor=#000000;" edge="1" parent="1" source="OM0yy5erdSnodjNcbPo9-43" target="OM0yy5erdSnodjNcbPo9-48">
          <mxGeometry relative="1" as="geometry">
            <mxPoint as="offset" />
          </mxGeometry>
        </mxCell>
        <mxCell id="OM0yy5erdSnodjNcbPo9-43" value="3" style="ellipse;whiteSpace=wrap;html=1;aspect=fixed;" vertex="1" parent="1">
          <mxGeometry x="960" y="3080" width="40" height="40" as="geometry" />
        </mxCell>
        <mxCell id="OM0yy5erdSnodjNcbPo9-44" value="6" style="ellipse;whiteSpace=wrap;html=1;aspect=fixed;" vertex="1" parent="1">
          <mxGeometry x="1120" y="3080" width="40" height="40" as="geometry" />
        </mxCell>
        <mxCell id="OM0yy5erdSnodjNcbPo9-45" value="5" style="rounded=0;orthogonalLoop=1;jettySize=auto;html=1;exitX=1;exitY=1;exitDx=0;exitDy=0;shape=link;entryX=0.5;entryY=0;entryDx=0;entryDy=0;" edge="1" parent="1" source="OM0yy5erdSnodjNcbPo9-46" target="OM0yy5erdSnodjNcbPo9-44">
          <mxGeometry x="0.0007" relative="1" as="geometry">
            <mxPoint as="offset" />
          </mxGeometry>
        </mxCell>
        <mxCell id="OM0yy5erdSnodjNcbPo9-46" value="5" style="ellipse;whiteSpace=wrap;html=1;aspect=fixed;" vertex="1" parent="1">
          <mxGeometry x="1080" y="3000" width="40" height="40" as="geometry" />
        </mxCell>
        <mxCell id="OM0yy5erdSnodjNcbPo9-47" value="1" style="rounded=0;orthogonalLoop=1;jettySize=auto;html=1;exitX=0.5;exitY=1;exitDx=0;exitDy=0;shape=link;fillColor=#d5e8d4;strokeColor=#82b366;" edge="1" parent="1" source="OM0yy5erdSnodjNcbPo9-48" target="OM0yy5erdSnodjNcbPo9-51">
          <mxGeometry relative="1" as="geometry">
            <mxPoint as="offset" />
          </mxGeometry>
        </mxCell>
        <mxCell id="OM0yy5erdSnodjNcbPo9-48" value="7" style="ellipse;whiteSpace=wrap;html=1;aspect=fixed;" vertex="1" parent="1">
          <mxGeometry x="880" y="3080" width="40" height="40" as="geometry" />
        </mxCell>
        <mxCell id="OM0yy5erdSnodjNcbPo9-49" value="3" style="rounded=0;orthogonalLoop=1;jettySize=auto;html=1;exitX=1;exitY=0.5;exitDx=0;exitDy=0;shape=link;fillColor=#d5e8d4;strokeColor=#000000;" edge="1" parent="1" source="OM0yy5erdSnodjNcbPo9-50" target="OM0yy5erdSnodjNcbPo9-39">
          <mxGeometry relative="1" as="geometry">
            <mxPoint as="offset" />
          </mxGeometry>
        </mxCell>
        <mxCell id="OM0yy5erdSnodjNcbPo9-133" value="4" style="rounded=0;orthogonalLoop=1;jettySize=auto;html=1;exitX=0.5;exitY=1;exitDx=0;exitDy=0;entryX=0;entryY=0;entryDx=0;entryDy=0;shape=link;" edge="1" parent="1" source="OM0yy5erdSnodjNcbPo9-50" target="OM0yy5erdSnodjNcbPo9-43">
          <mxGeometry relative="1" as="geometry" />
        </mxCell>
        <mxCell id="OM0yy5erdSnodjNcbPo9-50" value="2" style="ellipse;whiteSpace=wrap;html=1;aspect=fixed;" vertex="1" parent="1">
          <mxGeometry x="920" y="3000" width="40" height="40" as="geometry" />
        </mxCell>
        <mxCell id="OM0yy5erdSnodjNcbPo9-51" value="1" style="ellipse;whiteSpace=wrap;html=1;aspect=fixed;" vertex="1" parent="1">
          <mxGeometry x="880" y="3160" width="40" height="40" as="geometry" />
        </mxCell>
        <mxCell id="OM0yy5erdSnodjNcbPo9-52" value="3" style="rounded=0;orthogonalLoop=1;jettySize=auto;html=1;exitX=0.5;exitY=1;exitDx=0;exitDy=0;shape=link;fillColor=#d5e8d4;strokeColor=#82b366;" edge="1" parent="1" source="OM0yy5erdSnodjNcbPo9-55" target="OM0yy5erdSnodjNcbPo9-57">
          <mxGeometry x="0.011" relative="1" as="geometry">
            <mxPoint as="offset" />
          </mxGeometry>
        </mxCell>
        <mxCell id="OM0yy5erdSnodjNcbPo9-53" value="4" style="rounded=0;orthogonalLoop=1;jettySize=auto;html=1;exitX=0.5;exitY=1;exitDx=0;exitDy=0;shape=link;fillColor=#d5e8d4;strokeColor=#000000;" edge="1" parent="1" source="OM0yy5erdSnodjNcbPo9-55" target="OM0yy5erdSnodjNcbPo9-59">
          <mxGeometry x="-0.0056" relative="1" as="geometry">
            <mxPoint as="offset" />
          </mxGeometry>
        </mxCell>
        <mxCell id="OM0yy5erdSnodjNcbPo9-54" value="4" style="rounded=0;orthogonalLoop=1;jettySize=auto;html=1;exitX=1;exitY=0.5;exitDx=0;exitDy=0;shape=link;fillColor=#d5e8d4;strokeColor=#000000;" edge="1" parent="1" source="OM0yy5erdSnodjNcbPo9-55" target="OM0yy5erdSnodjNcbPo9-62">
          <mxGeometry relative="1" as="geometry">
            <mxPoint as="offset" />
          </mxGeometry>
        </mxCell>
        <mxCell id="OM0yy5erdSnodjNcbPo9-55" value="4" style="ellipse;whiteSpace=wrap;html=1;aspect=fixed;" vertex="1" parent="1">
          <mxGeometry x="1000" y="3240" width="40" height="40" as="geometry" />
        </mxCell>
        <mxCell id="OM0yy5erdSnodjNcbPo9-56" value="1" style="rounded=0;orthogonalLoop=1;jettySize=auto;html=1;exitX=1;exitY=0.5;exitDx=0;exitDy=0;entryX=0;entryY=0.5;entryDx=0;entryDy=0;shape=link;fillColor=#d5e8d4;strokeColor=#82b366;" edge="1" parent="1" source="OM0yy5erdSnodjNcbPo9-57" target="OM0yy5erdSnodjNcbPo9-60">
          <mxGeometry relative="1" as="geometry">
            <mxPoint as="offset" />
          </mxGeometry>
        </mxCell>
        <mxCell id="OM0yy5erdSnodjNcbPo9-57" value="8" style="ellipse;whiteSpace=wrap;html=1;aspect=fixed;" vertex="1" parent="1">
          <mxGeometry x="1040" y="3320" width="40" height="40" as="geometry" />
        </mxCell>
        <mxCell id="OM0yy5erdSnodjNcbPo9-58" value="6" style="rounded=0;orthogonalLoop=1;jettySize=auto;html=1;exitX=0;exitY=0.5;exitDx=0;exitDy=0;shape=link;fillColor=#d5e8d4;strokeColor=#000000;" edge="1" parent="1" source="OM0yy5erdSnodjNcbPo9-59" target="OM0yy5erdSnodjNcbPo9-64">
          <mxGeometry relative="1" as="geometry">
            <mxPoint as="offset" />
          </mxGeometry>
        </mxCell>
        <mxCell id="OM0yy5erdSnodjNcbPo9-59" value="3" style="ellipse;whiteSpace=wrap;html=1;aspect=fixed;" vertex="1" parent="1">
          <mxGeometry x="960" y="3320" width="40" height="40" as="geometry" />
        </mxCell>
        <mxCell id="OM0yy5erdSnodjNcbPo9-60" value="6" style="ellipse;whiteSpace=wrap;html=1;aspect=fixed;" vertex="1" parent="1">
          <mxGeometry x="1120" y="3320" width="40" height="40" as="geometry" />
        </mxCell>
        <mxCell id="OM0yy5erdSnodjNcbPo9-61" value="5" style="rounded=0;orthogonalLoop=1;jettySize=auto;html=1;exitX=1;exitY=1;exitDx=0;exitDy=0;shape=link;entryX=0.5;entryY=0;entryDx=0;entryDy=0;" edge="1" parent="1" source="OM0yy5erdSnodjNcbPo9-62" target="OM0yy5erdSnodjNcbPo9-60">
          <mxGeometry x="0.0007" relative="1" as="geometry">
            <mxPoint as="offset" />
          </mxGeometry>
        </mxCell>
        <mxCell id="OM0yy5erdSnodjNcbPo9-62" value="5" style="ellipse;whiteSpace=wrap;html=1;aspect=fixed;" vertex="1" parent="1">
          <mxGeometry x="1080" y="3240" width="40" height="40" as="geometry" />
        </mxCell>
        <mxCell id="OM0yy5erdSnodjNcbPo9-63" value="1" style="rounded=0;orthogonalLoop=1;jettySize=auto;html=1;exitX=0.5;exitY=1;exitDx=0;exitDy=0;shape=link;fillColor=#d5e8d4;strokeColor=#82b366;" edge="1" parent="1" source="OM0yy5erdSnodjNcbPo9-64" target="OM0yy5erdSnodjNcbPo9-67">
          <mxGeometry relative="1" as="geometry">
            <mxPoint as="offset" />
          </mxGeometry>
        </mxCell>
        <mxCell id="OM0yy5erdSnodjNcbPo9-64" value="7" style="ellipse;whiteSpace=wrap;html=1;aspect=fixed;" vertex="1" parent="1">
          <mxGeometry x="880" y="3320" width="40" height="40" as="geometry" />
        </mxCell>
        <mxCell id="OM0yy5erdSnodjNcbPo9-65" value="3" style="rounded=0;orthogonalLoop=1;jettySize=auto;html=1;exitX=1;exitY=0.5;exitDx=0;exitDy=0;shape=link;fillColor=#d5e8d4;strokeColor=#000000;" edge="1" parent="1" source="OM0yy5erdSnodjNcbPo9-66" target="OM0yy5erdSnodjNcbPo9-55">
          <mxGeometry relative="1" as="geometry">
            <mxPoint as="offset" />
          </mxGeometry>
        </mxCell>
        <mxCell id="OM0yy5erdSnodjNcbPo9-135" value="4" style="rounded=0;orthogonalLoop=1;jettySize=auto;html=1;exitX=0.5;exitY=1;exitDx=0;exitDy=0;entryX=0;entryY=0;entryDx=0;entryDy=0;shape=link;" edge="1" parent="1" source="OM0yy5erdSnodjNcbPo9-66" target="OM0yy5erdSnodjNcbPo9-59">
          <mxGeometry relative="1" as="geometry" />
        </mxCell>
        <mxCell id="OM0yy5erdSnodjNcbPo9-66" value="2" style="ellipse;whiteSpace=wrap;html=1;aspect=fixed;" vertex="1" parent="1">
          <mxGeometry x="920" y="3240" width="40" height="40" as="geometry" />
        </mxCell>
        <mxCell id="OM0yy5erdSnodjNcbPo9-67" value="1" style="ellipse;whiteSpace=wrap;html=1;aspect=fixed;" vertex="1" parent="1">
          <mxGeometry x="880" y="3400" width="40" height="40" as="geometry" />
        </mxCell>
        <mxCell id="OM0yy5erdSnodjNcbPo9-68" value="3" style="rounded=0;orthogonalLoop=1;jettySize=auto;html=1;exitX=0.5;exitY=1;exitDx=0;exitDy=0;shape=link;fillColor=#d5e8d4;strokeColor=#82b366;" edge="1" parent="1" source="OM0yy5erdSnodjNcbPo9-71" target="OM0yy5erdSnodjNcbPo9-73">
          <mxGeometry x="0.011" relative="1" as="geometry">
            <mxPoint as="offset" />
          </mxGeometry>
        </mxCell>
        <mxCell id="OM0yy5erdSnodjNcbPo9-69" value="4" style="rounded=0;orthogonalLoop=1;jettySize=auto;html=1;exitX=0.5;exitY=1;exitDx=0;exitDy=0;shape=link;fillColor=#d5e8d4;strokeColor=#000000;" edge="1" parent="1" source="OM0yy5erdSnodjNcbPo9-71" target="OM0yy5erdSnodjNcbPo9-75">
          <mxGeometry x="-0.0056" relative="1" as="geometry">
            <mxPoint as="offset" />
          </mxGeometry>
        </mxCell>
        <mxCell id="OM0yy5erdSnodjNcbPo9-70" value="4" style="rounded=0;orthogonalLoop=1;jettySize=auto;html=1;exitX=1;exitY=0.5;exitDx=0;exitDy=0;shape=link;fillColor=#d5e8d4;strokeColor=#000000;" edge="1" parent="1" source="OM0yy5erdSnodjNcbPo9-71" target="OM0yy5erdSnodjNcbPo9-78">
          <mxGeometry relative="1" as="geometry">
            <mxPoint as="offset" />
          </mxGeometry>
        </mxCell>
        <mxCell id="OM0yy5erdSnodjNcbPo9-71" value="4" style="ellipse;whiteSpace=wrap;html=1;aspect=fixed;" vertex="1" parent="1">
          <mxGeometry x="1000" y="3480" width="40" height="40" as="geometry" />
        </mxCell>
        <mxCell id="OM0yy5erdSnodjNcbPo9-72" value="1" style="rounded=0;orthogonalLoop=1;jettySize=auto;html=1;exitX=1;exitY=0.5;exitDx=0;exitDy=0;entryX=0;entryY=0.5;entryDx=0;entryDy=0;shape=link;fillColor=#d5e8d4;strokeColor=#82b366;" edge="1" parent="1" source="OM0yy5erdSnodjNcbPo9-73" target="OM0yy5erdSnodjNcbPo9-76">
          <mxGeometry relative="1" as="geometry">
            <mxPoint as="offset" />
          </mxGeometry>
        </mxCell>
        <mxCell id="OM0yy5erdSnodjNcbPo9-73" value="8" style="ellipse;whiteSpace=wrap;html=1;aspect=fixed;" vertex="1" parent="1">
          <mxGeometry x="1040" y="3560" width="40" height="40" as="geometry" />
        </mxCell>
        <mxCell id="OM0yy5erdSnodjNcbPo9-74" value="6" style="rounded=0;orthogonalLoop=1;jettySize=auto;html=1;exitX=0;exitY=0.5;exitDx=0;exitDy=0;shape=link;fillColor=#d5e8d4;strokeColor=#000000;" edge="1" parent="1" source="OM0yy5erdSnodjNcbPo9-75" target="OM0yy5erdSnodjNcbPo9-80">
          <mxGeometry relative="1" as="geometry">
            <mxPoint as="offset" />
          </mxGeometry>
        </mxCell>
        <mxCell id="OM0yy5erdSnodjNcbPo9-75" value="3" style="ellipse;whiteSpace=wrap;html=1;aspect=fixed;" vertex="1" parent="1">
          <mxGeometry x="960" y="3560" width="40" height="40" as="geometry" />
        </mxCell>
        <mxCell id="OM0yy5erdSnodjNcbPo9-76" value="6" style="ellipse;whiteSpace=wrap;html=1;aspect=fixed;" vertex="1" parent="1">
          <mxGeometry x="1120" y="3560" width="40" height="40" as="geometry" />
        </mxCell>
        <mxCell id="OM0yy5erdSnodjNcbPo9-77" value="5" style="rounded=0;orthogonalLoop=1;jettySize=auto;html=1;exitX=1;exitY=1;exitDx=0;exitDy=0;shape=link;entryX=0.5;entryY=0;entryDx=0;entryDy=0;" edge="1" parent="1" source="OM0yy5erdSnodjNcbPo9-78" target="OM0yy5erdSnodjNcbPo9-76">
          <mxGeometry x="0.0007" relative="1" as="geometry">
            <mxPoint as="offset" />
          </mxGeometry>
        </mxCell>
        <mxCell id="OM0yy5erdSnodjNcbPo9-78" value="5" style="ellipse;whiteSpace=wrap;html=1;aspect=fixed;" vertex="1" parent="1">
          <mxGeometry x="1080" y="3480" width="40" height="40" as="geometry" />
        </mxCell>
        <mxCell id="OM0yy5erdSnodjNcbPo9-79" value="1" style="rounded=0;orthogonalLoop=1;jettySize=auto;html=1;exitX=0.5;exitY=1;exitDx=0;exitDy=0;shape=link;fillColor=#d5e8d4;strokeColor=#82b366;" edge="1" parent="1" source="OM0yy5erdSnodjNcbPo9-80" target="OM0yy5erdSnodjNcbPo9-83">
          <mxGeometry relative="1" as="geometry">
            <mxPoint as="offset" />
          </mxGeometry>
        </mxCell>
        <mxCell id="OM0yy5erdSnodjNcbPo9-80" value="7" style="ellipse;whiteSpace=wrap;html=1;aspect=fixed;" vertex="1" parent="1">
          <mxGeometry x="880" y="3560" width="40" height="40" as="geometry" />
        </mxCell>
        <mxCell id="OM0yy5erdSnodjNcbPo9-81" value="3" style="rounded=0;orthogonalLoop=1;jettySize=auto;html=1;exitX=1;exitY=0.5;exitDx=0;exitDy=0;shape=link;fillColor=#d5e8d4;strokeColor=#82b366;" edge="1" parent="1" source="OM0yy5erdSnodjNcbPo9-82" target="OM0yy5erdSnodjNcbPo9-71">
          <mxGeometry relative="1" as="geometry">
            <mxPoint as="offset" />
          </mxGeometry>
        </mxCell>
        <mxCell id="OM0yy5erdSnodjNcbPo9-137" value="4" style="rounded=0;orthogonalLoop=1;jettySize=auto;html=1;exitX=0.5;exitY=1;exitDx=0;exitDy=0;entryX=0;entryY=0;entryDx=0;entryDy=0;shape=link;" edge="1" parent="1" source="OM0yy5erdSnodjNcbPo9-82" target="OM0yy5erdSnodjNcbPo9-75">
          <mxGeometry relative="1" as="geometry" />
        </mxCell>
        <mxCell id="OM0yy5erdSnodjNcbPo9-82" value="2" style="ellipse;whiteSpace=wrap;html=1;aspect=fixed;" vertex="1" parent="1">
          <mxGeometry x="920" y="3480" width="40" height="40" as="geometry" />
        </mxCell>
        <mxCell id="OM0yy5erdSnodjNcbPo9-83" value="1" style="ellipse;whiteSpace=wrap;html=1;aspect=fixed;" vertex="1" parent="1">
          <mxGeometry x="880" y="3640" width="40" height="40" as="geometry" />
        </mxCell>
        <mxCell id="OM0yy5erdSnodjNcbPo9-84" value="3" style="rounded=0;orthogonalLoop=1;jettySize=auto;html=1;exitX=0.5;exitY=1;exitDx=0;exitDy=0;shape=link;fillColor=#d5e8d4;strokeColor=#82b366;" edge="1" parent="1" source="OM0yy5erdSnodjNcbPo9-87" target="OM0yy5erdSnodjNcbPo9-89">
          <mxGeometry x="0.011" relative="1" as="geometry">
            <mxPoint as="offset" />
          </mxGeometry>
        </mxCell>
        <mxCell id="OM0yy5erdSnodjNcbPo9-85" value="4" style="rounded=0;orthogonalLoop=1;jettySize=auto;html=1;exitX=0.5;exitY=1;exitDx=0;exitDy=0;shape=link;fillColor=#d5e8d4;strokeColor=#82b366;" edge="1" parent="1" source="OM0yy5erdSnodjNcbPo9-87" target="OM0yy5erdSnodjNcbPo9-91">
          <mxGeometry x="-0.0066" relative="1" as="geometry">
            <mxPoint as="offset" />
          </mxGeometry>
        </mxCell>
        <mxCell id="OM0yy5erdSnodjNcbPo9-86" value="4" style="rounded=0;orthogonalLoop=1;jettySize=auto;html=1;exitX=1;exitY=0.5;exitDx=0;exitDy=0;shape=link;fillColor=#d5e8d4;strokeColor=#000000;" edge="1" parent="1" source="OM0yy5erdSnodjNcbPo9-87" target="OM0yy5erdSnodjNcbPo9-94">
          <mxGeometry relative="1" as="geometry">
            <mxPoint as="offset" />
          </mxGeometry>
        </mxCell>
        <mxCell id="OM0yy5erdSnodjNcbPo9-87" value="4" style="ellipse;whiteSpace=wrap;html=1;aspect=fixed;" vertex="1" parent="1">
          <mxGeometry x="1000" y="3720" width="40" height="40" as="geometry" />
        </mxCell>
        <mxCell id="OM0yy5erdSnodjNcbPo9-88" value="1" style="rounded=0;orthogonalLoop=1;jettySize=auto;html=1;exitX=1;exitY=0.5;exitDx=0;exitDy=0;entryX=0;entryY=0.5;entryDx=0;entryDy=0;shape=link;fillColor=#d5e8d4;strokeColor=#82b366;" edge="1" parent="1" source="OM0yy5erdSnodjNcbPo9-89" target="OM0yy5erdSnodjNcbPo9-92">
          <mxGeometry relative="1" as="geometry">
            <mxPoint as="offset" />
          </mxGeometry>
        </mxCell>
        <mxCell id="OM0yy5erdSnodjNcbPo9-89" value="8" style="ellipse;whiteSpace=wrap;html=1;aspect=fixed;" vertex="1" parent="1">
          <mxGeometry x="1040" y="3800" width="40" height="40" as="geometry" />
        </mxCell>
        <mxCell id="OM0yy5erdSnodjNcbPo9-90" value="6" style="rounded=0;orthogonalLoop=1;jettySize=auto;html=1;exitX=0;exitY=0.5;exitDx=0;exitDy=0;shape=link;fillColor=#d5e8d4;strokeColor=#000000;" edge="1" parent="1" source="OM0yy5erdSnodjNcbPo9-91" target="OM0yy5erdSnodjNcbPo9-96">
          <mxGeometry relative="1" as="geometry">
            <mxPoint as="offset" />
          </mxGeometry>
        </mxCell>
        <mxCell id="OM0yy5erdSnodjNcbPo9-91" value="3" style="ellipse;whiteSpace=wrap;html=1;aspect=fixed;" vertex="1" parent="1">
          <mxGeometry x="960" y="3800" width="40" height="40" as="geometry" />
        </mxCell>
        <mxCell id="OM0yy5erdSnodjNcbPo9-92" value="6" style="ellipse;whiteSpace=wrap;html=1;aspect=fixed;" vertex="1" parent="1">
          <mxGeometry x="1120" y="3800" width="40" height="40" as="geometry" />
        </mxCell>
        <mxCell id="OM0yy5erdSnodjNcbPo9-93" value="5" style="rounded=0;orthogonalLoop=1;jettySize=auto;html=1;exitX=1;exitY=1;exitDx=0;exitDy=0;shape=link;entryX=0.5;entryY=0;entryDx=0;entryDy=0;" edge="1" parent="1" source="OM0yy5erdSnodjNcbPo9-94" target="OM0yy5erdSnodjNcbPo9-92">
          <mxGeometry x="0.0007" relative="1" as="geometry">
            <mxPoint as="offset" />
          </mxGeometry>
        </mxCell>
        <mxCell id="OM0yy5erdSnodjNcbPo9-94" value="5" style="ellipse;whiteSpace=wrap;html=1;aspect=fixed;" vertex="1" parent="1">
          <mxGeometry x="1080" y="3720" width="40" height="40" as="geometry" />
        </mxCell>
        <mxCell id="OM0yy5erdSnodjNcbPo9-95" value="1" style="rounded=0;orthogonalLoop=1;jettySize=auto;html=1;exitX=0.5;exitY=1;exitDx=0;exitDy=0;shape=link;fillColor=#d5e8d4;strokeColor=#82b366;" edge="1" parent="1" source="OM0yy5erdSnodjNcbPo9-96" target="OM0yy5erdSnodjNcbPo9-99">
          <mxGeometry relative="1" as="geometry">
            <mxPoint as="offset" />
          </mxGeometry>
        </mxCell>
        <mxCell id="OM0yy5erdSnodjNcbPo9-96" value="7" style="ellipse;whiteSpace=wrap;html=1;aspect=fixed;" vertex="1" parent="1">
          <mxGeometry x="880" y="3800" width="40" height="40" as="geometry" />
        </mxCell>
        <mxCell id="OM0yy5erdSnodjNcbPo9-97" value="3" style="rounded=0;orthogonalLoop=1;jettySize=auto;html=1;exitX=1;exitY=0.5;exitDx=0;exitDy=0;shape=link;fillColor=#d5e8d4;strokeColor=#82b366;" edge="1" parent="1" source="OM0yy5erdSnodjNcbPo9-98" target="OM0yy5erdSnodjNcbPo9-87">
          <mxGeometry relative="1" as="geometry">
            <mxPoint as="offset" />
          </mxGeometry>
        </mxCell>
        <mxCell id="OM0yy5erdSnodjNcbPo9-138" value="4" style="rounded=0;orthogonalLoop=1;jettySize=auto;html=1;exitX=0.5;exitY=1;exitDx=0;exitDy=0;entryX=0;entryY=0;entryDx=0;entryDy=0;shape=link;" edge="1" parent="1" source="OM0yy5erdSnodjNcbPo9-98" target="OM0yy5erdSnodjNcbPo9-91">
          <mxGeometry relative="1" as="geometry" />
        </mxCell>
        <mxCell id="OM0yy5erdSnodjNcbPo9-98" value="2" style="ellipse;whiteSpace=wrap;html=1;aspect=fixed;" vertex="1" parent="1">
          <mxGeometry x="920" y="3720" width="40" height="40" as="geometry" />
        </mxCell>
        <mxCell id="OM0yy5erdSnodjNcbPo9-99" value="1" style="ellipse;whiteSpace=wrap;html=1;aspect=fixed;" vertex="1" parent="1">
          <mxGeometry x="880" y="3880" width="40" height="40" as="geometry" />
        </mxCell>
        <mxCell id="OM0yy5erdSnodjNcbPo9-100" value="3" style="rounded=0;orthogonalLoop=1;jettySize=auto;html=1;exitX=0.5;exitY=1;exitDx=0;exitDy=0;shape=link;fillColor=#d5e8d4;strokeColor=#82b366;" edge="1" parent="1" source="OM0yy5erdSnodjNcbPo9-103" target="OM0yy5erdSnodjNcbPo9-105">
          <mxGeometry x="0.011" relative="1" as="geometry">
            <mxPoint as="offset" />
          </mxGeometry>
        </mxCell>
        <mxCell id="OM0yy5erdSnodjNcbPo9-101" value="4" style="rounded=0;orthogonalLoop=1;jettySize=auto;html=1;exitX=0.5;exitY=1;exitDx=0;exitDy=0;shape=link;fillColor=#d5e8d4;strokeColor=#82b366;" edge="1" parent="1" source="OM0yy5erdSnodjNcbPo9-103" target="OM0yy5erdSnodjNcbPo9-107">
          <mxGeometry x="-0.0066" relative="1" as="geometry">
            <mxPoint as="offset" />
          </mxGeometry>
        </mxCell>
        <mxCell id="OM0yy5erdSnodjNcbPo9-102" value="4" style="rounded=0;orthogonalLoop=1;jettySize=auto;html=1;exitX=1;exitY=0.5;exitDx=0;exitDy=0;shape=link;fillColor=#d5e8d4;strokeColor=#82b366;" edge="1" parent="1" source="OM0yy5erdSnodjNcbPo9-103" target="OM0yy5erdSnodjNcbPo9-110">
          <mxGeometry relative="1" as="geometry">
            <mxPoint as="offset" />
          </mxGeometry>
        </mxCell>
        <mxCell id="OM0yy5erdSnodjNcbPo9-103" value="4" style="ellipse;whiteSpace=wrap;html=1;aspect=fixed;" vertex="1" parent="1">
          <mxGeometry x="1000" y="3960" width="40" height="40" as="geometry" />
        </mxCell>
        <mxCell id="OM0yy5erdSnodjNcbPo9-104" value="1" style="rounded=0;orthogonalLoop=1;jettySize=auto;html=1;exitX=1;exitY=0.5;exitDx=0;exitDy=0;entryX=0;entryY=0.5;entryDx=0;entryDy=0;shape=link;fillColor=#d5e8d4;strokeColor=#82b366;" edge="1" parent="1" source="OM0yy5erdSnodjNcbPo9-105" target="OM0yy5erdSnodjNcbPo9-108">
          <mxGeometry relative="1" as="geometry">
            <mxPoint as="offset" />
          </mxGeometry>
        </mxCell>
        <mxCell id="OM0yy5erdSnodjNcbPo9-105" value="8" style="ellipse;whiteSpace=wrap;html=1;aspect=fixed;" vertex="1" parent="1">
          <mxGeometry x="1040" y="4040" width="40" height="40" as="geometry" />
        </mxCell>
        <mxCell id="OM0yy5erdSnodjNcbPo9-106" value="6" style="rounded=0;orthogonalLoop=1;jettySize=auto;html=1;exitX=0;exitY=0.5;exitDx=0;exitDy=0;shape=link;fillColor=#d5e8d4;strokeColor=#000000;" edge="1" parent="1" source="OM0yy5erdSnodjNcbPo9-107" target="OM0yy5erdSnodjNcbPo9-112">
          <mxGeometry relative="1" as="geometry">
            <mxPoint as="offset" />
          </mxGeometry>
        </mxCell>
        <mxCell id="OM0yy5erdSnodjNcbPo9-107" value="3" style="ellipse;whiteSpace=wrap;html=1;aspect=fixed;" vertex="1" parent="1">
          <mxGeometry x="960" y="4040" width="40" height="40" as="geometry" />
        </mxCell>
        <mxCell id="OM0yy5erdSnodjNcbPo9-108" value="6" style="ellipse;whiteSpace=wrap;html=1;aspect=fixed;" vertex="1" parent="1">
          <mxGeometry x="1120" y="4040" width="40" height="40" as="geometry" />
        </mxCell>
        <mxCell id="OM0yy5erdSnodjNcbPo9-109" value="5" style="rounded=0;orthogonalLoop=1;jettySize=auto;html=1;exitX=1;exitY=1;exitDx=0;exitDy=0;shape=link;entryX=0.5;entryY=0;entryDx=0;entryDy=0;" edge="1" parent="1" source="OM0yy5erdSnodjNcbPo9-110" target="OM0yy5erdSnodjNcbPo9-108">
          <mxGeometry x="0.0007" relative="1" as="geometry">
            <mxPoint as="offset" />
          </mxGeometry>
        </mxCell>
        <mxCell id="OM0yy5erdSnodjNcbPo9-110" value="5" style="ellipse;whiteSpace=wrap;html=1;aspect=fixed;" vertex="1" parent="1">
          <mxGeometry x="1080" y="3960" width="40" height="40" as="geometry" />
        </mxCell>
        <mxCell id="OM0yy5erdSnodjNcbPo9-111" value="1" style="rounded=0;orthogonalLoop=1;jettySize=auto;html=1;exitX=0.5;exitY=1;exitDx=0;exitDy=0;shape=link;fillColor=#d5e8d4;strokeColor=#82b366;" edge="1" parent="1" source="OM0yy5erdSnodjNcbPo9-112" target="OM0yy5erdSnodjNcbPo9-115">
          <mxGeometry relative="1" as="geometry">
            <mxPoint as="offset" />
          </mxGeometry>
        </mxCell>
        <mxCell id="OM0yy5erdSnodjNcbPo9-112" value="7" style="ellipse;whiteSpace=wrap;html=1;aspect=fixed;" vertex="1" parent="1">
          <mxGeometry x="880" y="4040" width="40" height="40" as="geometry" />
        </mxCell>
        <mxCell id="OM0yy5erdSnodjNcbPo9-113" value="3" style="rounded=0;orthogonalLoop=1;jettySize=auto;html=1;exitX=1;exitY=0.5;exitDx=0;exitDy=0;shape=link;fillColor=#d5e8d4;strokeColor=#82b366;" edge="1" parent="1" source="OM0yy5erdSnodjNcbPo9-114" target="OM0yy5erdSnodjNcbPo9-103">
          <mxGeometry relative="1" as="geometry">
            <mxPoint as="offset" />
          </mxGeometry>
        </mxCell>
        <mxCell id="OM0yy5erdSnodjNcbPo9-139" value="4" style="rounded=0;orthogonalLoop=1;jettySize=auto;html=1;exitX=0.5;exitY=1;exitDx=0;exitDy=0;entryX=0;entryY=0;entryDx=0;entryDy=0;shape=link;" edge="1" parent="1" source="OM0yy5erdSnodjNcbPo9-114" target="OM0yy5erdSnodjNcbPo9-107">
          <mxGeometry relative="1" as="geometry" />
        </mxCell>
        <mxCell id="OM0yy5erdSnodjNcbPo9-114" value="2" style="ellipse;whiteSpace=wrap;html=1;aspect=fixed;" vertex="1" parent="1">
          <mxGeometry x="920" y="3960" width="40" height="40" as="geometry" />
        </mxCell>
        <mxCell id="OM0yy5erdSnodjNcbPo9-115" value="1" style="ellipse;whiteSpace=wrap;html=1;aspect=fixed;" vertex="1" parent="1">
          <mxGeometry x="880" y="4120" width="40" height="40" as="geometry" />
        </mxCell>
        <mxCell id="OM0yy5erdSnodjNcbPo9-116" value="3" style="rounded=0;orthogonalLoop=1;jettySize=auto;html=1;exitX=0.5;exitY=1;exitDx=0;exitDy=0;shape=link;fillColor=#d5e8d4;strokeColor=#82b366;" edge="1" parent="1" source="OM0yy5erdSnodjNcbPo9-119" target="OM0yy5erdSnodjNcbPo9-121">
          <mxGeometry x="0.011" relative="1" as="geometry">
            <mxPoint as="offset" />
          </mxGeometry>
        </mxCell>
        <mxCell id="OM0yy5erdSnodjNcbPo9-117" value="4" style="rounded=0;orthogonalLoop=1;jettySize=auto;html=1;exitX=0.5;exitY=1;exitDx=0;exitDy=0;shape=link;fillColor=#d5e8d4;strokeColor=#82b366;" edge="1" parent="1" source="OM0yy5erdSnodjNcbPo9-119" target="OM0yy5erdSnodjNcbPo9-123">
          <mxGeometry x="-0.0066" relative="1" as="geometry">
            <mxPoint as="offset" />
          </mxGeometry>
        </mxCell>
        <mxCell id="OM0yy5erdSnodjNcbPo9-118" value="4" style="rounded=0;orthogonalLoop=1;jettySize=auto;html=1;exitX=1;exitY=0.5;exitDx=0;exitDy=0;shape=link;fillColor=#d5e8d4;strokeColor=#82b366;" edge="1" parent="1" source="OM0yy5erdSnodjNcbPo9-119" target="OM0yy5erdSnodjNcbPo9-126">
          <mxGeometry relative="1" as="geometry">
            <mxPoint as="offset" />
          </mxGeometry>
        </mxCell>
        <mxCell id="OM0yy5erdSnodjNcbPo9-119" value="4" style="ellipse;whiteSpace=wrap;html=1;aspect=fixed;" vertex="1" parent="1">
          <mxGeometry x="1000" y="4200" width="40" height="40" as="geometry" />
        </mxCell>
        <mxCell id="OM0yy5erdSnodjNcbPo9-120" value="1" style="rounded=0;orthogonalLoop=1;jettySize=auto;html=1;exitX=1;exitY=0.5;exitDx=0;exitDy=0;entryX=0;entryY=0.5;entryDx=0;entryDy=0;shape=link;fillColor=#d5e8d4;strokeColor=#82b366;" edge="1" parent="1" source="OM0yy5erdSnodjNcbPo9-121" target="OM0yy5erdSnodjNcbPo9-124">
          <mxGeometry relative="1" as="geometry">
            <mxPoint as="offset" />
          </mxGeometry>
        </mxCell>
        <mxCell id="OM0yy5erdSnodjNcbPo9-121" value="8" style="ellipse;whiteSpace=wrap;html=1;aspect=fixed;" vertex="1" parent="1">
          <mxGeometry x="1040" y="4280" width="40" height="40" as="geometry" />
        </mxCell>
        <mxCell id="OM0yy5erdSnodjNcbPo9-122" value="6" style="rounded=0;orthogonalLoop=1;jettySize=auto;html=1;exitX=0;exitY=0.5;exitDx=0;exitDy=0;shape=link;fillColor=#d5e8d4;strokeColor=#82b366;" edge="1" parent="1" source="OM0yy5erdSnodjNcbPo9-123" target="OM0yy5erdSnodjNcbPo9-128">
          <mxGeometry relative="1" as="geometry">
            <mxPoint as="offset" />
          </mxGeometry>
        </mxCell>
        <mxCell id="OM0yy5erdSnodjNcbPo9-123" value="3" style="ellipse;whiteSpace=wrap;html=1;aspect=fixed;" vertex="1" parent="1">
          <mxGeometry x="960" y="4280" width="40" height="40" as="geometry" />
        </mxCell>
        <mxCell id="OM0yy5erdSnodjNcbPo9-124" value="6" style="ellipse;whiteSpace=wrap;html=1;aspect=fixed;" vertex="1" parent="1">
          <mxGeometry x="1120" y="4280" width="40" height="40" as="geometry" />
        </mxCell>
        <mxCell id="OM0yy5erdSnodjNcbPo9-125" value="5" style="rounded=0;orthogonalLoop=1;jettySize=auto;html=1;exitX=1;exitY=1;exitDx=0;exitDy=0;shape=link;entryX=0.5;entryY=0;entryDx=0;entryDy=0;" edge="1" parent="1" source="OM0yy5erdSnodjNcbPo9-126" target="OM0yy5erdSnodjNcbPo9-124">
          <mxGeometry x="0.0007" relative="1" as="geometry">
            <mxPoint as="offset" />
          </mxGeometry>
        </mxCell>
        <mxCell id="OM0yy5erdSnodjNcbPo9-126" value="5" style="ellipse;whiteSpace=wrap;html=1;aspect=fixed;" vertex="1" parent="1">
          <mxGeometry x="1080" y="4200" width="40" height="40" as="geometry" />
        </mxCell>
        <mxCell id="OM0yy5erdSnodjNcbPo9-127" value="1" style="rounded=0;orthogonalLoop=1;jettySize=auto;html=1;exitX=0.5;exitY=1;exitDx=0;exitDy=0;shape=link;fillColor=#d5e8d4;strokeColor=#82b366;" edge="1" parent="1" source="OM0yy5erdSnodjNcbPo9-128" target="OM0yy5erdSnodjNcbPo9-131">
          <mxGeometry relative="1" as="geometry">
            <mxPoint as="offset" />
          </mxGeometry>
        </mxCell>
        <mxCell id="OM0yy5erdSnodjNcbPo9-128" value="7" style="ellipse;whiteSpace=wrap;html=1;aspect=fixed;" vertex="1" parent="1">
          <mxGeometry x="880" y="4280" width="40" height="40" as="geometry" />
        </mxCell>
        <mxCell id="OM0yy5erdSnodjNcbPo9-129" value="3" style="rounded=0;orthogonalLoop=1;jettySize=auto;html=1;exitX=1;exitY=0.5;exitDx=0;exitDy=0;shape=link;fillColor=#d5e8d4;strokeColor=#82b366;" edge="1" parent="1" source="OM0yy5erdSnodjNcbPo9-130" target="OM0yy5erdSnodjNcbPo9-119">
          <mxGeometry relative="1" as="geometry">
            <mxPoint as="offset" />
          </mxGeometry>
        </mxCell>
        <mxCell id="OM0yy5erdSnodjNcbPo9-141" value="4" style="rounded=0;orthogonalLoop=1;jettySize=auto;html=1;exitX=0.5;exitY=1;exitDx=0;exitDy=0;entryX=0;entryY=0;entryDx=0;entryDy=0;shape=link;" edge="1" parent="1" source="OM0yy5erdSnodjNcbPo9-130" target="OM0yy5erdSnodjNcbPo9-123">
          <mxGeometry relative="1" as="geometry" />
        </mxCell>
        <mxCell id="OM0yy5erdSnodjNcbPo9-130" value="2" style="ellipse;whiteSpace=wrap;html=1;aspect=fixed;" vertex="1" parent="1">
          <mxGeometry x="920" y="4200" width="40" height="40" as="geometry" />
        </mxCell>
        <mxCell id="OM0yy5erdSnodjNcbPo9-131" value="1" style="ellipse;whiteSpace=wrap;html=1;aspect=fixed;" vertex="1" parent="1">
          <mxGeometry x="880" y="4360" width="40" height="40" as="geometry" />
        </mxCell>
      </root>
    </mxGraphModel>
  </diagram>
</mxfile>
